<?xml version="1.0" encoding="utf-8"?>
<svg id="visual" viewBox="0 0 1920 1080" width="1920" height="1080" version="1.1" xmlns="http://www.w3.org/2000/svg">
  <rect width="1920" height="1080" fill="#000617" y="0" x="0"/>
  <g transform="matrix(-1, 0, 0, 1, -0.775855, -0.112811)">
    <path d="M0 1080C-105.5 1049.3 -211.1 1018.6 -319.8 984.3C-428.6 950.1 -540.5 912.2 -606.6 834.9C-672.7 757.6 -692.8 640.8 -766.1 556.6C-839.5 472.5 -966 421.1 -1027.1 333.7C-1088.3 246.4 -1084.2 123.2 -1080 0L0 0Z" fill="#0c1024"/>
    <path d="M0 945C-92.3 918.1 -184.7 891.3 -279.9 861.3C-375 831.3 -473 798.2 -530.8 730.5C-588.6 662.9 -606.2 560.7 -670.4 487.1C-734.5 413.4 -845.2 368.4 -898.7 292C-952.3 215.6 -948.6 107.8 -945 0L0 0Z" fill="#211c3e"/>
    <path d="M0 810C-79.2 787 -158.3 764 -239.9 738.3C-321.4 712.6 -405.4 684.2 -454.9 626.2C-504.5 568.2 -519.6 480.6 -574.6 417.5C-629.6 354.4 -724.5 315.8 -770.4 250.3C-816.2 184.8 -813.1 92.4 -810 0L0 0Z" fill="#412255"/>
    <path d="M0 675C-66 655.8 -131.9 636.6 -199.9 615.2C-267.9 593.8 -337.8 570.1 -379.1 521.8C-420.4 473.5 -433 400.5 -478.8 347.9C-524.7 295.3 -603.7 263.2 -642 208.6C-680.2 154 -677.6 77 -675 0L0 0Z" fill="#682364"/>
    <path d="M0 540C-52.8 524.7 -105.5 509.3 -159.9 492.2C-214.3 475 -270.3 456.1 -303.3 417.5C-336.3 378.8 -346.4 320.4 -383.1 278.3C-419.7 236.3 -483 210.5 -513.6 166.9C-544.2 123.2 -542.1 61.6 -540 0L0 0Z" fill="#921c6b"/>
    <path d="M0 405C-39.6 393.5 -79.2 382 -119.9 369.1C-160.7 356.3 -202.7 342.1 -227.5 313.1C-252.2 284.1 -259.8 240.3 -287.3 208.7C-314.8 177.2 -362.2 157.9 -385.2 125.2C-408.1 92.4 -406.6 46.2 -405 0L0 0Z" fill="#bc0b68"/>
    <path d="M0 270C-26.4 262.3 -52.8 254.7 -80 246.1C-107.1 237.5 -135.1 228.1 -151.6 208.7C-168.2 189.4 -173.2 160.2 -191.5 139.2C-209.9 118.1 -241.5 105.3 -256.8 83.4C-272.1 61.6 -271 30.8 -270 0L0 0Z" fill="#e3005c"/>
    <path d="M0 135C-13.2 131.2 -26.4 127.3 -40 123C-53.6 118.8 -67.6 114 -75.8 104.4C-84.1 94.7 -86.6 80.1 -95.8 69.6C-104.9 59.1 -120.7 52.6 -128.4 41.7C-136 30.8 -135.5 15.4 -135 0L0 0Z" fill="#f40c53"/>
  </g>
</svg>