<svg xmlns="http://www.w3.org/2000/svg" xmlns:xlink="http://www.w3.org/1999/xlink" width="500" zoomAndPan="magnify" viewBox="0 0 375 374.999991" height="500" preserveAspectRatio="xMidYMid meet" version="1.0"><defs><clipPath id="id1"><path d="M 0 1 L 187.5 1 L 187.5 188.25 L 0 188.25 Z M 0 1 " clip-rule="nonzero"/></clipPath><clipPath id="id2"><path d="M 0 187.5 L 187.5 187.5 L 187.5 375 L 0 375 Z M 0 187.5 " clip-rule="nonzero"/></clipPath><clipPath id="id3"><path d="M 190.054688 188.316406 L 333 188.316406 L 333 375 L 190.054688 375 Z M 190.054688 188.316406 " clip-rule="nonzero"/></clipPath><clipPath id="id4"><path d="M 237 188.316406 L 375 188.316406 L 375 375 L 237 375 Z M 237 188.316406 " clip-rule="nonzero"/></clipPath><clipPath id="id5"><path d="M 185.953125 188.316406 L 328 188.316406 L 328 375 L 185.953125 375 Z M 185.953125 188.316406 " clip-rule="nonzero"/></clipPath><clipPath id="id6"><path d="M 233 188.316406 L 374.953125 188.316406 L 374.953125 375 L 233 375 Z M 233 188.316406 " clip-rule="nonzero"/></clipPath><clipPath id="id7"><path d="M 187.5 64 L 366.75 64 L 366.75 187.5 L 187.5 187.5 Z M 187.5 64 " clip-rule="nonzero"/></clipPath><clipPath id="id8"><path d="M 223 16 L 366.75 16 L 366.75 72 L 223 72 Z M 223 16 " clip-rule="nonzero"/></clipPath></defs><g clip-path="url(#id1)"><path fill="rgb(36.859131%, 9.01947%, 92.158508%)" d="M 146.730469 103 C 146.730469 100.035156 143.15625 98.550781 141.066406 100.648438 L 138.984375 102.730469 L 124.917969 116.824219 C 123.671875 118.074219 123.625 120.070312 124.777344 121.375 C 124.820312 121.425781 124.867188 121.476562 124.917969 121.527344 L 141.066406 137.707031 C 143.15625 139.800781 146.730469 138.316406 146.730469 135.355469 L 146.730469 103 M 133.882812 188.246094 L 46.453125 100.648438 C 44.367188 98.550781 40.789062 100.035156 40.789062 103 L 40.789062 188.246094 L 0.046875 188.246094 L 0.046875 4.4375 C 0.046875 1.476562 3.621094 -0.00390625 5.710938 2.089844 L 91.414062 87.960938 C 91.457031 88 91.496094 88.039062 91.539062 88.078125 L 91.542969 88.082031 C 92.84375 89.253906 94.851562 89.214844 96.105469 87.960938 L 110.171875 73.863281 L 181.808594 2.089844 C 183.902344 -0.00390625 187.472656 1.476562 187.472656 4.4375 L 187.472656 188.246094 L 133.882812 188.246094 " fill-opacity="1" fill-rule="nonzero"/></g><path fill="rgb(36.079407%, 88.238525%, 90.19928%)" d="M 124.203125 117.886719 C 124.363281 117.503906 124.601562 117.140625 124.917969 116.824219 L 138.984375 102.730469 L 124.917969 116.824219 C 124.601562 117.140625 124.363281 117.503906 124.203125 117.886719 M 93.761719 88.933594 C 93.753906 88.933594 93.75 88.933594 93.738281 88.933594 C 93.75 88.933594 93.753906 88.933594 93.761719 88.933594 M 93.773438 88.933594 C 94.617188 88.929688 95.460938 88.605469 96.105469 87.960938 C 95.460938 88.605469 94.617188 88.929688 93.773438 88.933594 M 91.847656 88.324219 C 91.742188 88.25 91.640625 88.167969 91.542969 88.082031 C 91.640625 88.167969 91.742188 88.25 91.847656 88.324219 " fill-opacity="1" fill-rule="nonzero"/><path fill="rgb(54.899597%, 32.159424%, 100%)" d="M 124.777344 121.375 C 123.914062 120.398438 123.722656 119.035156 124.203125 117.886719 C 124.363281 117.503906 124.601562 117.140625 124.917969 116.824219 L 138.984375 102.730469 L 110.171875 73.863281 L 96.105469 87.960938 C 95.460938 88.605469 94.617188 88.929688 93.773438 88.933594 C 93.765625 88.933594 93.765625 88.933594 93.761719 88.933594 C 93.753906 88.933594 93.75 88.933594 93.738281 88.933594 C 93.074219 88.929688 92.410156 88.726562 91.847656 88.324219 C 91.742188 88.25 91.640625 88.167969 91.542969 88.082031 L 124.777344 121.375 " fill-opacity="1" fill-rule="nonzero"/><g clip-path="url(#id2)"><path fill="rgb(36.859131%, 9.01947%, 92.158508%)" d="M 187.5 281.25 C 187.5 229.480469 145.519531 187.5 93.75 187.5 L 0 187.5 L 0 210.9375 L 93.75 210.9375 C 132.578125 210.9375 164.0625 242.421875 164.0625 281.25 C 164.0625 320.078125 132.578125 351.5625 93.75 351.5625 L 0 351.5625 L 0 375 L 93.75 375 C 145.519531 375 187.5 333.019531 187.5 281.25 Z M 93.75 328.125 L 46.875 328.125 L 46.875 304.6875 L 93.75 304.6875 C 106.691406 304.6875 117.1875 294.191406 117.1875 281.25 C 117.1875 268.308594 106.691406 257.8125 93.75 257.8125 L 46.875 257.8125 L 46.875 234.375 L 93.75 234.375 C 119.636719 234.375 140.625 255.363281 140.625 281.25 C 140.625 307.136719 119.636719 328.125 93.75 328.125 " fill-opacity="1" fill-rule="nonzero"/></g><path fill="rgb(54.899597%, 32.159424%, 100%)" d="M 0 281.25 L 0 351.5625 L 23.4375 351.5625 L 23.4375 304.6875 Z M 0 210.9375 L 0 257.8125 L 23.4375 281.25 L 23.4375 210.9375 Z M 70.3125 304.6875 L 46.875 281.25 L 46.875 304.6875 Z M 46.875 257.8125 L 70.3125 257.8125 L 70.3125 281.25 L 46.875 257.8125 " fill-opacity="1" fill-rule="nonzero"/><g clip-path="url(#id3)"><path fill="rgb(54.899597%, 32.159424%, 100%)" d="M 190.160156 188.65625 L 190.269531 188.65625 L 190.269531 188.328125 L 216.9375 188.328125 L 216.9375 188.65625 L 266.671875 268.722656 L 239.785156 268.503906 L 216.945312 231.792969 L 216.945312 281.683594 L 261.429688 281.789062 L 261.429688 308.476562 L 216.835938 308.371094 L 216.835938 348.238281 L 289.195312 348.347656 L 296.953125 348.347656 L 296.953125 317.734375 L 332.476562 375.035156 L 305.695312 375.035156 L 190.054688 374.933594 L 190.054688 348.242188 L 190.160156 284.191406 L 190.160156 281.6875 L 190.273438 188.65625 Z M 190.160156 188.65625 " fill-opacity="1" fill-rule="nonzero"/></g><g clip-path="url(#id4)"><path fill="rgb(54.899597%, 32.159424%, 100%)" d="M 379.6875 375.039062 L 352.910156 375.039062 L 237.382812 188.328125 L 264.160156 188.328125 L 352.910156 331.792969 L 353.019531 188.65625 L 379.796875 188.65625 C 379.796875 219.738281 379.777344 250.820312 379.738281 281.902344 C 379.707031 312.988281 379.6875 344.03125 379.6875 375.039062 Z M 379.6875 375.039062 " fill-opacity="1" fill-rule="nonzero"/></g><g clip-path="url(#id5)"><path fill="rgb(36.859131%, 9.01947%, 92.158508%)" d="M 186.058594 188.652344 L 186.167969 188.652344 L 186.167969 188.324219 L 212.730469 188.324219 L 212.730469 188.652344 L 262.269531 268.722656 L 235.484375 268.503906 L 212.734375 231.789062 L 212.734375 281.683594 L 257.042969 281.789062 L 257.042969 308.476562 L 212.628906 308.371094 L 212.628906 348.242188 L 284.699219 348.347656 L 292.429688 348.347656 L 292.429688 317.738281 L 327.8125 375.039062 L 301.136719 375.039062 L 185.953125 374.933594 L 185.953125 348.246094 L 186.058594 284.191406 L 186.058594 281.6875 L 186.171875 188.652344 Z M 186.058594 188.652344 " fill-opacity="1" fill-rule="nonzero"/></g><g clip-path="url(#id6)"><path fill="rgb(36.859131%, 9.01947%, 92.158508%)" d="M 374.835938 375.042969 L 348.164062 375.042969 L 233.09375 188.324219 L 259.765625 188.324219 L 348.164062 331.796875 L 348.273438 188.652344 L 374.945312 188.652344 C 374.945312 219.734375 374.925781 250.816406 374.886719 281.902344 C 374.855469 312.988281 374.835938 344.035156 374.835938 375.042969 Z M 374.835938 375.042969 " fill-opacity="1" fill-rule="nonzero"/></g><g clip-path="url(#id7)"><path fill="rgb(54.899597%, 32.159424%, 100%)" d="M 284.996094 172.585938 C 233.164062 172.585938 191.144531 130.613281 191.144531 78.835938 C 191.144531 73.941406 191.519531 69.136719 192.242188 64.445312 C 189.207031 73.671875 187.558594 83.523438 187.558594 93.761719 C 187.558594 145.542969 229.578125 187.515625 281.410156 187.515625 C 319.238281 187.515625 351.839844 165.160156 366.691406 132.949219 L 361.636719 132.949219 C 344.636719 156.929688 316.652344 172.585938 284.996094 172.585938 " fill-opacity="1" fill-rule="nonzero"/></g><g clip-path="url(#id8)"><path fill="rgb(54.899597%, 32.159424%, 100%)" d="M 284.996094 16.746094 C 253.023438 16.746094 226.695312 40.859375 223.230469 71.871094 C 232.09375 48.382812 254.796875 31.671875 281.410156 31.671875 C 300.859375 31.671875 318.222656 40.601562 329.617188 54.574219 L 366.691406 54.574219 C 364.269531 49.316406 361.367188 44.324219 358.050781 39.648438 L 333.207031 39.648438 C 321.808594 25.671875 304.445312 16.746094 284.996094 16.746094 " fill-opacity="1" fill-rule="nonzero"/></g><path fill="rgb(36.859131%, 9.01947%, 92.158508%)" d="M 281.410156 155.851562 C 247.082031 155.851562 219.253906 128.054688 219.253906 93.761719 C 219.253906 86.058594 220.664062 78.683594 223.230469 71.871094 C 226.695312 40.859375 253.023438 16.746094 284.996094 16.746094 C 304.445312 16.746094 321.808594 25.671875 333.207031 39.648438 L 358.050781 39.648438 C 341.054688 15.664062 313.0625 0.0117188 281.410156 0.0117188 C 239.824219 0.0117188 204.566406 27.027344 192.242188 64.445312 C 191.519531 69.136719 191.144531 73.941406 191.144531 78.835938 C 191.144531 130.613281 233.164062 172.585938 284.996094 172.585938 C 316.652344 172.585938 344.636719 156.929688 361.636719 132.949219 L 329.617188 132.949219 C 318.222656 146.921875 300.859375 155.851562 281.410156 155.851562 " fill-opacity="1" fill-rule="nonzero"/></svg>